<svg width="240" height="125" viewBox="0 0 240 125" fill="none" xmlns="http://www.w3.org/2000/svg">
<path opacity="0.5" d="M236.943 124.897H0V96.155L21.7344 104.68L44.2218 107.108L63.9541 102.374L87.7594 87.6735L99.7356 82.1678L108.488 80.8262L116.864 81.1844L130.64 86.5987L149.362 96.0929L164.052 97.5991L175.707 94.4002L200.399 78.2963L213.009 74.7209L226.202 76.3441L236.943 81.2831V124.897Z" fill="white"/>
<path d="M44.0376 106.998C22.8642 106.998 3.30366 96.7649 3.05762 96.6353L3.64083 95.9475C3.94155 96.106 34.0592 111.852 59.6432 103.963C68.9701 101.082 75.6178 96.6173 82.0423 92.2891C88.7493 87.7737 95.0872 83.5068 103.722 81.656C113.632 79.5351 124.458 81.4543 132.682 86.7979C139.712 91.3637 153.719 98.6805 168.509 96.5201C176.054 95.4002 182.41 91.0468 189.14 86.4378C202.021 77.5871 215.38 68.4518 238.472 81.5587L237.852 82.2357C215.444 69.5069 202.417 78.426 189.823 87.0536C182.989 91.7346 176.523 96.16 168.704 97.3194C153.486 99.5771 139.188 92.0983 132.017 87.4388C124.052 82.2681 113.577 80.4065 103.999 82.4589C95.5884 84.2593 89.3371 88.4687 82.7212 92.9229C76.2284 97.2942 69.5077 101.813 60.0259 104.737C54.9219 106.273 49.499 107.04 44.0376 106.998Z" fill="white" stroke="white"/>
<path d="M39.2678 44.2852C39.2678 43.2891 38.9162 42.5273 38.2131 42C37.51 41.4609 36.2443 40.8984 34.4162 40.3125C32.5881 39.7148 31.1408 39.1289 30.0744 38.5547C27.1682 36.9844 25.715 34.8691 25.715 32.209C25.715 30.8262 26.1018 29.5957 26.8752 28.5176C27.6604 27.4277 28.7795 26.5781 30.2326 25.9688C31.6975 25.3594 33.3381 25.0547 35.1545 25.0547C36.9826 25.0547 38.6115 25.3887 40.0412 26.0566C41.4709 26.7129 42.5783 27.6445 43.3635 28.8516C44.1604 30.0586 44.5588 31.4297 44.5588 32.9648H39.2854C39.2854 31.793 38.9162 30.8848 38.1779 30.2402C37.4397 29.584 36.4025 29.2559 35.0666 29.2559C33.7775 29.2559 32.7756 29.5312 32.0607 30.082C31.3459 30.6211 30.9885 31.3359 30.9885 32.2266C30.9885 33.0586 31.4045 33.7559 32.2365 34.3184C33.0803 34.8809 34.3166 35.4082 35.9455 35.9004C38.9455 36.8027 41.1311 37.9219 42.5022 39.2578C43.8732 40.5938 44.5588 42.2578 44.5588 44.25C44.5588 46.4648 43.7209 48.2051 42.0451 49.4707C40.3693 50.7246 38.1135 51.3516 35.2775 51.3516C33.3088 51.3516 31.5158 50.9941 29.8986 50.2793C28.2814 49.5527 27.0451 48.5625 26.1897 47.3086C25.3459 46.0547 24.924 44.6016 24.924 42.9492H30.215C30.215 45.7734 31.9025 47.1855 35.2775 47.1855C36.5314 47.1855 37.51 46.9336 38.2131 46.4297C38.9162 45.9141 39.2678 45.1992 39.2678 44.2852ZM47.0197 41.3145C47.0197 39.4277 47.383 37.7461 48.1096 36.2695C48.8361 34.793 49.8791 33.6504 51.2385 32.8418C52.6096 32.0332 54.1975 31.6289 56.0022 31.6289C58.5686 31.6289 60.6604 32.4141 62.2775 33.9844C63.9064 35.5547 64.8147 37.6875 65.0022 40.3828L65.0373 41.6836C65.0373 44.6016 64.2229 46.9453 62.5939 48.7148C60.965 50.4727 58.7795 51.3516 56.0373 51.3516C53.2951 51.3516 51.1037 50.4727 49.4631 48.7148C47.8342 46.957 47.0197 44.5664 47.0197 41.543V41.3145ZM52.0998 41.6836C52.0998 43.4883 52.4397 44.8711 53.1193 45.832C53.799 46.7812 54.7717 47.2559 56.0373 47.2559C57.2678 47.2559 58.2287 46.7871 58.9201 45.8496C59.6115 44.9004 59.9572 43.3887 59.9572 41.3145C59.9572 39.5449 59.6115 38.1738 58.9201 37.2012C58.2287 36.2285 57.2561 35.7422 56.0022 35.7422C54.76 35.7422 53.799 36.2285 53.1193 37.2012C52.4397 38.1621 52.0998 39.6562 52.0998 41.6836ZM88.592 42.4746C88.3928 45.2285 87.3732 47.3965 85.5334 48.9785C83.7053 50.5605 81.2912 51.3516 78.2912 51.3516C75.01 51.3516 72.426 50.25 70.5393 48.0469C68.6643 45.832 67.7268 42.7969 67.7268 38.9414V37.377C67.7268 34.916 68.1604 32.748 69.0275 30.873C69.8947 28.998 71.1311 27.5625 72.7365 26.5664C74.3537 25.5586 76.2287 25.0547 78.3615 25.0547C81.3147 25.0547 83.6936 25.8457 85.4982 27.4277C87.3029 29.0098 88.3459 31.2305 88.6272 34.0898H83.3537C83.2248 32.4375 82.7619 31.2422 81.965 30.5039C81.1799 29.7539 79.9787 29.3789 78.3615 29.3789C76.6037 29.3789 75.2854 30.0117 74.4064 31.2773C73.5393 32.5312 73.0939 34.4824 73.0705 37.1309V39.0645C73.0705 41.8301 73.4865 43.8516 74.3186 45.1289C75.1623 46.4062 76.4865 47.0449 78.2912 47.0449C79.9201 47.0449 81.133 46.6758 81.9299 45.9375C82.7385 45.1875 83.2014 44.0332 83.3186 42.4746H88.592ZM102.742 51C102.508 50.543 102.338 49.9746 102.233 49.2949C101.002 50.666 99.4025 51.3516 97.4338 51.3516C95.5705 51.3516 94.0236 50.8125 92.7932 49.7344C91.5744 48.6562 90.965 47.2969 90.965 45.6562C90.965 43.6406 91.7092 42.0938 93.1975 41.0156C94.6975 39.9375 96.8596 39.3926 99.6838 39.3809H102.022V38.291C102.022 37.4121 101.793 36.709 101.336 36.1816C100.891 35.6543 100.182 35.3906 99.2092 35.3906C98.3537 35.3906 97.6799 35.5957 97.1877 36.0059C96.7072 36.416 96.467 36.9785 96.467 37.6934H91.3869C91.3869 36.5918 91.7268 35.5723 92.4064 34.6348C93.0861 33.6973 94.0471 32.9648 95.2893 32.4375C96.5314 31.8984 97.926 31.6289 99.4729 31.6289C101.817 31.6289 103.674 32.2207 105.045 33.4043C106.428 34.5762 107.119 36.2285 107.119 38.3613V46.6055C107.131 48.4102 107.383 49.7754 107.875 50.7012V51H102.742ZM98.5412 47.4668C99.2912 47.4668 99.9826 47.3027 100.615 46.9746C101.248 46.6348 101.717 46.1836 102.022 45.6211V42.3516H100.123C97.5803 42.3516 96.2268 43.2305 96.0627 44.9883L96.0451 45.2871C96.0451 45.9199 96.2678 46.4414 96.7131 46.8516C97.1584 47.2617 97.7678 47.4668 98.5412 47.4668ZM116.383 51H111.285V24H116.383V51ZM148.094 29.6777H140.254V51H134.981V29.6777H127.246V25.4062H148.094V29.6777ZM156.145 51H151.047V31.9805H156.145V51ZM150.748 27.0586C150.748 26.2969 151 25.6699 151.504 25.1777C152.02 24.6855 152.717 24.4395 153.596 24.4395C154.463 24.4395 155.154 24.6855 155.67 25.1777C156.186 25.6699 156.444 26.2969 156.444 27.0586C156.444 27.832 156.18 28.4648 155.653 28.957C155.137 29.4492 154.451 29.6953 153.596 29.6953C152.74 29.6953 152.049 29.4492 151.522 28.957C151.006 28.4648 150.748 27.832 150.748 27.0586ZM159.555 41.3496C159.555 38.3848 160.217 36.0234 161.541 34.2656C162.877 32.5078 164.699 31.6289 167.008 31.6289C168.86 31.6289 170.389 32.3203 171.596 33.7031V24H176.694V51H172.106L171.86 48.9785C170.594 50.5605 168.965 51.3516 166.973 51.3516C164.735 51.3516 162.936 50.4727 161.576 48.7148C160.229 46.9453 159.555 44.4902 159.555 41.3496ZM164.635 41.7188C164.635 43.5 164.946 44.8652 165.567 45.8145C166.188 46.7637 167.09 47.2383 168.274 47.2383C169.844 47.2383 170.951 46.5762 171.596 45.252V37.7461C170.963 36.4219 169.867 35.7598 168.309 35.7598C165.86 35.7598 164.635 37.7461 164.635 41.7188ZM189.385 51.3516C186.596 51.3516 184.322 50.4961 182.565 48.7852C180.819 47.0742 179.946 44.7949 179.946 41.9473V41.4551C179.946 39.5449 180.315 37.8398 181.053 36.3398C181.791 34.8281 182.834 33.668 184.182 32.8594C185.541 32.0391 187.088 31.6289 188.822 31.6289C191.424 31.6289 193.469 32.4492 194.957 34.0898C196.457 35.7305 197.207 38.0566 197.207 41.0684V43.1426H185.096C185.26 44.3848 185.752 45.3809 186.572 46.1309C187.404 46.8809 188.453 47.2559 189.719 47.2559C191.676 47.2559 193.205 46.5469 194.307 45.1289L196.803 47.9238C196.041 49.002 195.01 49.8457 193.709 50.4551C192.408 51.0527 190.967 51.3516 189.385 51.3516ZM188.805 35.7422C187.797 35.7422 186.977 36.082 186.344 36.7617C185.723 37.4414 185.324 38.4141 185.149 39.6797H192.215V39.2754C192.192 38.1504 191.887 37.2832 191.301 36.6738C190.715 36.0527 189.883 35.7422 188.805 35.7422ZM210.408 45.7441C210.408 45.123 210.098 44.6367 209.477 44.2852C208.867 43.9219 207.883 43.5996 206.524 43.3184C202 42.3691 199.738 40.4473 199.738 37.5527C199.738 35.8652 200.436 34.459 201.83 33.334C203.237 32.1973 205.071 31.6289 207.332 31.6289C209.746 31.6289 211.674 32.1973 213.115 33.334C214.569 34.4707 215.295 35.9473 215.295 37.7637H210.215C210.215 37.0371 209.981 36.4395 209.512 35.9707C209.043 35.4902 208.311 35.25 207.315 35.25C206.459 35.25 205.797 35.4434 205.328 35.8301C204.86 36.2168 204.625 36.709 204.625 37.3066C204.625 37.8691 204.889 38.3262 205.416 38.6777C205.955 39.0176 206.858 39.3164 208.123 39.5742C209.389 39.8203 210.455 40.1016 211.322 40.418C214.006 41.4023 215.348 43.1074 215.348 45.5332C215.348 47.2676 214.604 48.6738 213.115 49.752C211.627 50.8184 209.705 51.3516 207.35 51.3516C205.756 51.3516 204.338 51.0703 203.096 50.5078C201.865 49.9336 200.899 49.1543 200.196 48.1699C199.492 47.1738 199.141 46.1016 199.141 44.9531H203.957C204.004 45.8555 204.338 46.5469 204.959 47.0273C205.58 47.5078 206.412 47.748 207.455 47.748C208.428 47.748 209.16 47.5664 209.653 47.2031C210.156 46.8281 210.408 46.3418 210.408 45.7441Z" fill="white"/>
<rect x="1" y="1" width="238" height="123" stroke="white" stroke-width="2"/>
</svg>
