<svg width="25" height="25" viewBox="0 0 25 25" fill="none" xmlns="http://www.w3.org/2000/svg">
<g clip-path="url(#clip0)">
<path d="M21.5161 0.61377L21.7114 4.65527C20.577 3.31701 19.1644 2.24217 17.5721 1.50564C15.9798 0.769116 14.2461 0.388607 12.4917 0.390625C6.57861 0.390625 1.65576 4.63477 0.600098 10.2451C0.584481 10.3296 0.587656 10.4166 0.609396 10.4997C0.631136 10.5829 0.67091 10.6603 0.725895 10.7264C0.780881 10.7924 0.849732 10.8456 0.927565 10.8821C1.0054 10.9186 1.09031 10.9375 1.17627 10.9375H3.57129C3.70332 10.9374 3.83143 10.8926 3.93486 10.8106C4.03829 10.7285 4.11097 10.6139 4.14111 10.4854C4.53171 8.86434 5.38567 7.39206 6.59881 6.24814C7.81195 5.10423 9.33181 4.33814 10.9729 4.04336C12.6141 3.74858 14.3056 3.93784 15.841 4.58805C17.3764 5.23827 18.6893 6.32133 19.6196 7.70508L14.6655 7.46777C14.5863 7.464 14.5071 7.47637 14.4327 7.50413C14.3584 7.53188 14.2905 7.57444 14.2331 7.62923C14.1757 7.68402 14.13 7.7499 14.0989 7.82286C14.0677 7.89583 14.0517 7.97437 14.0518 8.05371V10.3687C14.0518 10.5241 14.1135 10.6731 14.2234 10.783C14.3333 10.8929 14.4823 10.9546 14.6377 10.9546H24.4141C24.5695 10.9546 24.7185 10.8929 24.8284 10.783C24.9383 10.6731 25 10.5241 25 10.3687V0.585938C25 0.430537 24.9383 0.281502 24.8284 0.171617C24.7185 0.0617325 24.5695 0 24.4141 0L22.1011 0C22.0218 4.26355e-05 21.9434 0.0161668 21.8705 0.0473967C21.7977 0.0786266 21.7319 0.124313 21.6772 0.181691C21.6225 0.239069 21.5801 0.306946 21.5524 0.381213C21.5247 0.455481 21.5123 0.534596 21.5161 0.61377V0.61377ZM12.4917 21.0938C11.0828 21.095 9.69528 20.749 8.45189 20.0864C7.20849 19.4238 6.14752 18.4651 5.36279 17.2949L10.3335 17.5327C10.4128 17.5365 10.4919 17.5241 10.5663 17.4964C10.6406 17.4686 10.7085 17.426 10.7659 17.3713C10.8233 17.3165 10.869 17.2506 10.9002 17.1776C10.9313 17.1047 10.9474 17.0261 10.9473 16.9468V14.6323C10.9473 14.4769 10.8855 14.3279 10.7756 14.218C10.6658 14.1081 10.5167 14.0464 10.3613 14.0464H0.585938C0.430537 14.0464 0.281502 14.1081 0.171617 14.218C0.0617325 14.3279 0 14.4769 0 14.6323L0 24.4141C0 24.5695 0.0617325 24.7185 0.171617 24.8284C0.281502 24.9383 0.430537 25 0.585938 25H2.89795C2.97742 25.0001 3.05609 24.984 3.12916 24.9528C3.20223 24.9215 3.26817 24.8757 3.32298 24.8182C3.37779 24.7606 3.42032 24.6925 3.44798 24.618C3.47565 24.5435 3.48786 24.4641 3.48389 24.3848L3.28125 20.353C4.41548 21.6886 5.82691 22.7611 7.41746 23.4961C9.00801 24.2312 10.7395 24.611 12.4917 24.6094C18.4053 24.6094 23.3281 20.3652 24.3838 14.7549C24.3994 14.6704 24.3962 14.5834 24.3745 14.5003C24.3528 14.4171 24.313 14.3397 24.258 14.2736C24.203 14.2076 24.1342 14.1544 24.0563 14.1179C23.9785 14.0814 23.8936 14.0625 23.8076 14.0625H21.4126C21.2806 14.0626 21.1525 14.1074 21.049 14.1894C20.9456 14.2715 20.8729 14.3861 20.8428 14.5146C20.3918 16.3898 19.3228 18.0585 17.8078 19.252C16.2929 20.4455 14.4203 21.0942 12.4917 21.0938V21.0938Z" fill="#4BC0C0"/>
</g>
<defs>
<clipPath id="clip0">
<rect width="25" height="25" fill="white"/>
</clipPath>
</defs>
</svg>
